<svg xmlns="http://www.w3.org/2000/svg" viewBox="6.0 132.0 138.0 144.2" width="138" height="144" role="img" aria-label="jabr">
  <title>jabr</title>
  <g fill="#E5E7EB">
    <path transform="translate(24 224)" d="M 20 24.199219 L 20 -40 C 20 -45.601562 15.601562 -50 10 -50 C 4.398438 -50 0 -45.601562 0 -40 L 0 24 C 0 29.601562 4.199219 34 9.800781 34 C 15.398438 34.199219 20 29.800781 20 24.199219 Z" />
    <path transform="translate(54 224)" d="M 20 0.199219 L 20 -64 C 20 -69.601562 15.601562 -74 10 -74 C 4.398438 -74 0 -69.601562 0 -64 L 0 0 C 0 5.601562 4.199219 10 9.800781 10 C 15.398438 10.199219 20 5.800781 20 0.199219 Z" />
    <path transform="translate(84 224)" d="M 20 24.199219 L 20 -40 C 20 -45.601562 15.601562 -50 10 -50 C 4.398438 -50 0 -45.601562 0 -40 L 0 24 C 0 29.601562 4.199219 34 9.800781 34 C 15.398438 34.199219 20 29.800781 20 24.199219 Z" />
    <path transform="translate(84 224)" d="M 22 0 C 22 5.601562 26.199219 10 31.800781 10 C 37.398438 10.199219 42 5.800781 42 0.199219 L 42 -64 C 42 -69.601562 37.601562 -74 32 -74 C 26.398438 -74 22 -69.601562 22 -64 Z" />
  </g>
  <g fill="#9CA3AF">
    <path transform="translate(54 224)" d="M 0 24 C 0 29.601562 4.398438 34 10 34 C 15.601562 34 20 29.601562 20 24 C 20 18.398438 15.601562 14 10 14 C 4.398438 14 0 18.398438 0 24 Z" />
    <path transform="translate(84 224)" d="M 22 24 C 22 29.601562 26.398438 34 32 34 C 37.601562 34 42 29.601562 42 24 C 42 18.398438 37.601562 14 32 14 C 26.398438 14 22 18.398438 22 24 Z" />
  </g>
</svg>
